<svg xmlns="http://www.w3.org/2000/svg" width="46.899" height="38.548" viewBox="0 0 46.899 38.548">
  <g id="Grupo_1411" data-name="Grupo 1411" transform="translate(-128.463 -314)">
    <path id="XMLID_188_" d="M220.1,239.969a5.454,5.454,0,0,0-5.469-5.469h-35.96a5.454,5.454,0,0,0-5.469,5.469v10.173h46.9V239.969Z" transform="translate(-44.737 102.406)" fill="#fff"/>
    <path id="XMLID_71_" d="M216.768,133.324,218.1,131l1.332,2.324a1.548,1.548,0,0,1-1.332,2.324h0A1.548,1.548,0,0,1,216.768,133.324Z" transform="translate(-75.807 183)" fill="#fff"/>
    <path id="XMLID_73_" d="M250.768,133.324,252.1,131l1.332,2.324a1.548,1.548,0,0,1-1.332,2.324h0A1.548,1.548,0,0,1,250.768,133.324Z" transform="translate(-100.172 183)" fill="#fff"/>
    <path id="XMLID_74_" d="M284.768,133.324,286.1,131l1.332,2.324a1.548,1.548,0,0,1-1.332,2.324h0A1.548,1.548,0,0,1,284.768,133.324Z" transform="translate(-124.537 183)" fill="#fff"/>
    <path id="XMLID_139_" d="M230.915,185.026a3.828,3.828,0,0,0-3.826-3.826H201.926a3.828,3.828,0,0,0-3.826,3.826v7.113h32.787v-7.113Z" transform="translate(-62.58 140.602)" fill="#fff"/>
  </g>
</svg>
