<svg xmlns="http://www.w3.org/2000/svg" width="85.956" height="85.87" viewBox="0 0 85.956 85.87">
  <g id="icons" transform="translate(1.544 1.501)">
    <path id="favorite" d="M47.17,4.52l9.5,20.657a4.368,4.368,0,0,0,2.892,2.479L81.047,30.96c3.718,0,4.958,4.131,2.479,6.61l-15.7,16.112A5.767,5.767,0,0,0,66.588,57.4L70.306,79.71c.413,3.305-2.892,6.2-5.784,4.544L45.1,73.513a3.1,3.1,0,0,0-3.718,0L21.969,84.254a3.987,3.987,0,0,1-5.784-4.544L19.9,57.4c.413-1.239-.413-2.892-1.239-3.718L2.965,37.57C.9,35.092,2.139,30.96,5.444,30.547l21.483-3.305a3.544,3.544,0,0,0,2.892-2.479l9.5-20.657C41.387,1.215,45.518,1.215,47.17,4.52Z" transform="translate(-1.956 -1.987)" fill="none" stroke="#000" stroke-width="3"/>
  </g>
</svg>
