<svg xmlns="http://www.w3.org/2000/svg" width="49.3" height="42.911" viewBox="0 0 49.3 42.911">
  <g id="Grupo_280" data-name="Grupo 280" transform="translate(-131.285 -299.125)">
    <path id="Trazado_13" data-name="Trazado 13" d="M32.1,33.92c-.027-.3-.047-.785-.063-1.286C36.6,32.167,39.8,31.074,39.8,29.8c-.013,0-.012-.052-.012-.073C36.378,26.657,42.739,4.838,30.9,5.28a6.024,6.024,0,0,0-3.913-1.188C10.945,5.306,18.037,25.91,14.383,29.8h-.007s0,0,0,.006a0,0,0,0,1,0,0h0c.015,1.247,3.1,2.32,7.529,2.8-.013.3-.039.681-.1,1.311C19.972,38.861,7.573,37.474,7,47H46.86C46.289,37.474,33.942,38.861,32.1,33.92Z" transform="translate(133.725 295.033)" fill="#afadad"/>
    <path id="Trazado_12" data-name="Trazado 12" d="M32.1,33.906a43.361,43.361,0,0,1-.094-4.416c.766-.4,2.138-2.963,2.37-5.127.6-.049,1.551-.637,1.829-2.956A2.165,2.165,0,0,0,35.4,19.24c.98-2.947,3.015-12.062-3.764-13-.7-1.225-2.484-1.845-4.805-1.845C17.544,4.562,16.424,11.4,18.46,19.24a2.169,2.169,0,0,0-.809,2.166c.279,2.319,1.227,2.907,1.829,2.956.231,2.163,1.657,4.726,2.425,5.127a43.371,43.371,0,0,1-.1,4.416C19.972,38.846,7.573,37.459,7,46.988H46.86C46.289,37.459,33.942,38.846,32.1,33.906Z" transform="translate(124.285 295.048)" fill="#fff"/>
  </g>
</svg>
