<svg xmlns="http://www.w3.org/2000/svg" width="49.021" height="20.149" viewBox="0 0 49.021 20.149">
  <g id="iconfinder_weight_7055825" transform="translate(-7.67 -22)">
    <path id="Trazado_14" data-name="Trazado 14" d="M11.7,37.44H8.677A1.007,1.007,0,0,1,7.67,36.432V27.647A1.007,1.007,0,0,1,8.677,26.64H11.7a1.007,1.007,0,0,1,1.007,1.007v8.785A1.007,1.007,0,0,1,11.7,37.44ZM9.685,35.425h1.007v-6.77H9.685Z" transform="translate(0 0.034)" fill="#fff"/>
    <path id="Trazado_15" data-name="Trazado 15" d="M15.707,39.7h-4.03A1.007,1.007,0,0,1,10.67,38.7V25.417a1.007,1.007,0,0,1,1.007-1.007h4.03a1.007,1.007,0,0,1,1.007,1.007V38.7A1.007,1.007,0,0,1,15.707,39.7Zm-3.022-2.015H14.7V26.425H12.685Z" transform="translate(0.022 0.018)" fill="#fff"/>
    <path id="Trazado_16" data-name="Trazado 16" d="M22.377,42.149h-6.7a1.007,1.007,0,0,1-1.007-1.007V23.007A1.007,1.007,0,0,1,15.677,22h6.7a1.007,1.007,0,0,1,1.007,1.007V41.141A1.007,1.007,0,0,1,22.377,42.149Zm-5.692-2.015h4.685V24.015H16.685Z" transform="translate(0.052 0)" fill="#fff"/>
    <path id="Trazado_17" data-name="Trazado 17" d="M55.36,37.44H52.337a1.007,1.007,0,0,1-1.007-1.007V27.647a1.007,1.007,0,0,1,1.007-1.007H55.36a1.007,1.007,0,0,1,1.007,1.007v8.785A1.007,1.007,0,0,1,55.36,37.44Zm-2.015-2.015h1.007v-6.77H53.345Z" transform="translate(0.324 0.034)" fill="#fff"/>
    <path id="Trazado_18" data-name="Trazado 18" d="M52.357,39.7h-4.03A1.007,1.007,0,0,1,47.32,38.7V25.417a1.007,1.007,0,0,1,1.007-1.007h4.03a1.007,1.007,0,0,1,1.007,1.007V38.7A1.007,1.007,0,0,1,52.357,39.7Zm-3.022-2.015H51.35V26.425H49.335Z" transform="translate(0.294 0.018)" fill="#fff"/>
    <path id="Trazado_19" data-name="Trazado 19" d="M48.377,42.149h-6.7a1.007,1.007,0,0,1-1.007-1.007V23.007A1.007,1.007,0,0,1,41.677,22h6.7a1.007,1.007,0,0,1,1.007,1.007V41.141A1.007,1.007,0,0,1,48.377,42.149Zm-5.692-2.015h4.685V24.015H42.685Z" transform="translate(0.245 0)" fill="#fff"/>
    <path id="Trazado_20" data-name="Trazado 20" d="M41.821,35.045H22.327a1.007,1.007,0,0,1-1.007-1.007v-4.03A1.007,1.007,0,0,1,22.327,29H41.821a1.007,1.007,0,0,1,1.007,1.007v4.03A1.007,1.007,0,0,1,41.821,35.045ZM23.335,33.03H40.814V31.015H23.335Z" transform="translate(0.101 0.052)" fill="#fff"/>
  </g>
</svg>
